<svg width="17" height="14" viewBox="0 0 17 14" fill="none" xmlns="http://www.w3.org/2000/svg">
<g clip-path="url(#clip0_1_13)">
<path d="M11.1793 11.9564C10.8156 12.5907 10.2803 13.1093 9.63479 13.4527C8.98931 13.796 8.25999 13.9501 7.5308 13.8971L11.0328 7.8263C11.4426 8.43152 11.6736 9.13989 11.6995 9.87032C11.7254 10.6007 11.5451 11.3237 11.1793 11.9564Z" fill="url(#paint0_linear_1_13)"/>
<path d="M11.0328 7.8263L7.5308 13.8936C7.12169 13.2883 6.89102 12.5802 6.86513 11.8501C6.83923 11.1201 7.01916 10.3974 7.38436 9.76471C7.74956 9.132 8.28531 8.61474 8.93046 8.27198C9.5756 7.92922 10.3041 7.77478 11.0328 7.8263Z" fill="url(#paint1_linear_1_13)"/>
<path d="M11.0328 7.8263L7.5308 13.8936C7.12169 13.2883 6.89102 12.5802 6.86513 11.8501C6.83923 11.1201 7.01916 10.3974 7.38436 9.76471C7.74956 9.132 8.28531 8.61474 8.93046 8.27198C9.5756 7.92922 10.3041 7.77478 11.0328 7.8263Z" fill="url(#paint2_linear_1_13)"/>
<path d="M10.5 8.83898C10.1939 9.01592 9.85586 9.13081 9.50529 9.1771C9.15472 9.22338 8.79847 9.20015 8.45688 9.10873C8.11529 9.01732 7.79505 8.8595 7.51446 8.6443C7.23387 8.4291 6.99843 8.16074 6.82157 7.85453L5.81418 6.10616C5.6938 5.89825 5.60183 5.67514 5.54072 5.4428L0.345001 4.74945L5.47545 4.06668C5.49835 4.06493 5.52135 4.06493 5.54425 4.06668C5.68017 3.54971 5.96701 3.08494 6.36817 2.73166C6.76933 2.37838 7.26664 2.1526 7.79665 2.08313C8.32666 2.01366 8.86535 2.10365 9.34401 2.34161C9.82267 2.57957 10.2196 2.95472 10.4842 3.4192L11.4933 5.16757C11.6692 5.47384 11.7831 5.81177 11.8284 6.16205C11.8737 6.51234 11.8496 6.86812 11.7573 7.20907C11.6651 7.55001 11.5066 7.86944 11.2908 8.14911C11.0751 8.42878 10.8064 8.6632 10.5 8.83898Z" fill="url(#paint3_linear_1_13)"/>
<path d="M15.5176 6.96358C14.9424 7.95999 14.0986 8.77456 13.0825 9.31426C12.0664 9.85396 10.919 10.097 9.7714 10.0157L15.2917 0.451727C15.9378 1.40612 16.3017 2.52334 16.3417 3.67516C16.3816 4.82698 16.096 5.96672 15.5176 6.96358Z" fill="url(#paint4_linear_1_13)"/>
<path d="M15.2917 0.451728L9.77493 10.0069C9.13101 9.05352 8.7681 7.93831 8.7276 6.78856C8.68711 5.6388 8.97067 4.50082 9.54591 3.50449C10.1212 2.50816 10.9649 1.69362 11.9809 1.15383C12.9969 0.614046 14.1441 0.370755 15.2917 0.451728Z" fill="url(#paint5_linear_1_13)"/>
<path d="M15.2917 0.451728L9.77493 10.0069C9.13101 9.05352 8.7681 7.93831 8.7276 6.78856C8.68711 5.6388 8.97067 4.50082 9.54591 3.50449C10.1212 2.50816 10.9649 1.69362 11.9809 1.15383C12.9969 0.614046 14.1441 0.370755 15.2917 0.451728Z" fill="url(#paint6_linear_1_13)"/>
</g>
<defs>
<linearGradient id="paint0_linear_1_13" x1="7.5308" y1="10.8661" x2="11.7015" y2="10.8661" gradientUnits="userSpaceOnUse">
<stop stop-color="#FDE05C"/>
<stop offset="1" stop-color="#D7263D"/>
</linearGradient>
<linearGradient id="paint1_linear_1_13" x1="6.86215" y1="10.8555" x2="11.0328" y2="10.8555" gradientUnits="userSpaceOnUse">
<stop stop-color="#FDE05C"/>
<stop offset="1" stop-color="#D7263D"/>
</linearGradient>
<linearGradient id="paint2_linear_1_13" x1="6.86215" y1="10.8555" x2="11.0328" y2="10.8555" gradientUnits="userSpaceOnUse">
<stop stop-color="#FDE05C"/>
<stop offset="1" stop-color="#D7263D"/>
</linearGradient>
<linearGradient id="paint3_linear_1_13" x1="0.345001" y1="5.63334" x2="11.8462" y2="5.63334" gradientUnits="userSpaceOnUse">
<stop stop-color="#FDE05C"/>
<stop offset="1" stop-color="#D7263D"/>
</linearGradient>
<linearGradient id="paint4_linear_1_13" x1="9.77493" y1="5.23638" x2="16.345" y2="5.23638" gradientUnits="userSpaceOnUse">
<stop stop-color="#13A9FF"/>
<stop offset="1" stop-color="#3800E9"/>
</linearGradient>
<linearGradient id="paint5_linear_1_13" x1="8.72343" y1="5.2205" x2="15.2917" y2="5.2205" gradientUnits="userSpaceOnUse">
<stop stop-color="#13A9FF"/>
<stop offset="1" stop-color="#3800E9"/>
</linearGradient>
<linearGradient id="paint6_linear_1_13" x1="8.72343" y1="5.2205" x2="15.2917" y2="5.2205" gradientUnits="userSpaceOnUse">
<stop stop-color="#13A9FF"/>
<stop offset="1" stop-color="#3800E9"/>
</linearGradient>
<clipPath id="clip0_1_13">
<rect width="16" height="13.4683" fill="white" transform="translate(0.345001 0.43585)"/>
</clipPath>
</defs>
</svg>
